<?xml version="1.0" standalone="no"?><!DOCTYPE svg PUBLIC "-//W3C//DTD SVG 1.1//EN" "http://www.w3.org/Graphics/SVG/1.1/DTD/svg11.dtd"><svg t="1586306279554" class="icon" viewBox="0 0 1024 1024" version="1.1" xmlns="http://www.w3.org/2000/svg" p-id="3927" width="32" height="32" xmlns:xlink="http://www.w3.org/1999/xlink"><defs><style type="text/css"></style></defs><path d="M758.857143 241.371429H245.028571c-32.914286 0-60.342857 27.428571-60.342857 60.342857v378.514285c0 32.914286 27.428571 60.342857 60.342857 60.342858h54.857143c10.971429 0 18.285714-7.314286 18.285715-18.285715s-7.314286-18.285714-18.285715-18.285714h-54.857143c-12.8 0-23.771429-10.971429-23.771428-23.771429V301.714286c0-12.8 10.971429-23.771429 23.771428-23.771429h513.828572c12.8 0 23.771429 10.971429 23.771428 23.771429v378.514285c0 12.8-10.971429 23.771429-23.771428 23.771429H603.428571c-1.828571 0-3.657143 0-7.314285 1.828571-1.828571 1.828571-3.657143 1.828571-5.485715 3.657143l-85.942857 85.942857c-1.828571 1.828571-3.657143 1.828571-5.485714 0L457.142857 753.371429c-7.314286-7.314286-18.285714-7.314286-25.6 0s-7.314286 18.285714 0 25.6l42.057143 42.057142c7.314286 7.314286 18.285714 10.971429 29.257143 10.971429 10.971429 0 20.114286-3.657143 29.257143-10.971429l80.457143-80.457142h148.114285c32.914286 0 60.342857-27.428571 60.342857-60.342858V301.714286c0-32.914286-27.428571-60.342857-62.171428-60.342857z" fill="#1A1A1A" p-id="3928"></path><path d="M393.142857 713.142857c-3.657143 3.657143-5.485714 7.314286-5.485714 12.8 0 5.485714 1.828571 9.142857 5.485714 12.8 3.657143 3.657143 7.314286 5.485714 12.8 5.485714 5.485714 0 9.142857-1.828571 12.8-5.485714 3.657143-3.657143 5.485714-7.314286 5.485714-12.8 0-5.485714-1.828571-9.142857-5.485714-12.8-7.314286-7.314286-20.114286-7.314286-25.6 0z" fill="#1A1A1A" p-id="3929"></path><path d="M312.685714 490.057143m-31.085714 0a31.085714 31.085714 0 1 0 62.171429 0 31.085714 31.085714 0 1 0-62.171429 0Z" fill="#1A1A1A" p-id="3930"></path><path d="M502.857143 490.057143m-31.085714 0a31.085714 31.085714 0 1 0 62.171428 0 31.085714 31.085714 0 1 0-62.171428 0Z" fill="#1A1A1A" p-id="3931"></path><path d="M693.028571 490.057143m-31.085714 0a31.085714 31.085714 0 1 0 62.171429 0 31.085714 31.085714 0 1 0-62.171429 0Z" fill="#1A1A1A" p-id="3932"></path></svg>